{"title":"Frozen 3D - Kraina Lodu 3D (2013) [1080p.3D.OU.DTS] [ENG/POL]","uid":9842512,"size":16862586951,"categoryP":"video","categoryS":"3d","magnet":"?xt=urn:btih:83d28bea400ac59a6af7d6ac4f224259063db504&amp;dn=Frozen+3D+-+Kraina+Lodu+3D+%282013%29+%5B1080p.3D.OU.DTS%5D+%5BENG%2FPOL%5D&amp;tr=udp%3A%2F%2Ftracker.openbittorrent.com%3A80&amp;tr=udp%3A%2F%2Fopen.demonii.com%3A1337&amp;tr=udp%3A%2F%2Ftracker.coppersurfer.tk%3A6969&amp;tr=udp%3A%2F%2Fexodus.desync.com%3A6969","seeders":6,"leechers":2,"uploader":"gixer1000k9","files":-1,"time":1395968053,"description":"Anna, a fearless optimist, sets off on an epic journey - teaming up with rugged mountain man Kristoff and his loyal reindeer Sven - to find her sister Elsa, whose icy powers have trapped the kingdom of Arendelle in eternal winter. Encountering Everest-like conditions, mystical trolls and a hilarious snowman named Olaf, Anna and Kristoff battle the elements in a race to save the kingdom. From the outside Anna's sister, Elsa looks poised, regal and reserved, but in reality, she lives in fear as she wrestles with a mighty secret-she was born with the power to create ice and snow. It's a beautiful ability, but also extremely dangerous. Haunted by the moment her magic nearly killed her younger sister Anna, Elsa has isolated herself, spending every waking minute trying to suppress her growing powers. Her mounting emotions trigger the magic, accidentally setting off an eternal winter that she can't stop. She fears she's becoming a monster and that no one, not even her sister, can help her.\n\n &lt;a href=&quot;\nhttp://i.imgur.com/sdZ71pL.jpg&quot; rel=&quot;nofollow&quot; target=&quot;_NEW&quot;&gt;\nhttp://i.imgur.com/sdZ71pL.jpg&lt;/a&gt;\n &lt;a href=&quot;\nhttp://i.imgur.com/F21QqRO.jpg&quot; rel=&quot;nofollow&quot; target=&quot;_NEW&quot;&gt;\nhttp://i.imgur.com/F21QqRO.jpg&lt;/a&gt;\n &lt;a href=&quot;\nhttp://i.imgur.com/AKPYzje.jpg&quot; rel=&quot;nofollow&quot; target=&quot;_NEW&quot;&gt;\nhttp://i.imgur.com/AKPYzje.jpg&lt;/a&gt;\n &lt;a href=&quot;\nhttp://i.imgur.com/Y3eZ3OJ.jpg&quot; rel=&quot;nofollow&quot; target=&quot;_NEW&quot;&gt;\nhttp://i.imgur.com/Y3eZ3OJ.jpg&lt;/a&gt;\n &lt;a href=&quot;\nhttp://i.imgur.com/Acz5jTa.jpg&quot; rel=&quot;nofollow&quot; target=&quot;_NEW&quot;&gt;\nhttp://i.imgur.com/Acz5jTa.jpg&lt;/a&gt;\n\n\nTechnical Data:\n\nFormat                                   : Matroska\nFormat version                           : Version 2\nFile size                                : 15.7 GiB\nDuration                                 : 1h 42mn\nOverall bit rate mode                    : Variable\nOverall bit rate                         : 22.0 Mbps\nMovie name                               : Frozen 3D (2013) (gixerk9)\nEncoded date                             : UTC 2014-03-27 21:55:02\nWriting application                      : mkvmerge v5.7.0 ('The Whirlwind') built on Jul  8 2012 20:08:51\nWriting library                          : libebml v1.2.3 + libmatroska v1.3.0\n\nVideo\nID                                       : 1\nFormat                                   : AVC\nFormat/Info                              : Advanced Video Codec\nFormat profile                           : &lt;a class=&quot;__cf_email__&quot; href=&quot;/cdn-cgi/l/email-protection&quot; data-cfemail=&quot;eaa2838d82aaa6dec4db&quot;&gt;[email&amp;#160;protected]&lt;/a&gt;&lt;script cf-hash='f9e31' type=&quot;text/javascript&quot;&gt;\n/* &lt;![CDATA[ */!function(){try{var t=&quot;currentScript&quot;in document?document.currentScript:function(){for(var t=document.getElementsByTagName(&quot;script&quot;),e=t.length;e--;)if(t[e].getAttribute(&quot;cf-hash&quot;))return t[e]}();if(t&amp;&amp;t.previousSibling){var e,r,n,i,c=t.previousSibling,a=c.getAttribute(&quot;data-cfemail&quot;);if(a){for(e=&quot;&quot;,r=parseInt(a.substr(0,2),16),n=2;a.length-n;n+=2)i=parseInt(a.substr(n,2),16)^r,e+=String.fromCharCode(i);e=document.createTextNode(e),c.parentNode.replaceChild(e,c)}}}catch(u){}}();/* ]]&gt; */&lt;/script&gt;\nFormat settings, CABAC                   : Yes\nFormat settings, ReFrames                : 2 frames\nFormat settings, GOP                     : M=3, N=24\nCodec ID                                 : V_MPEG4/ISO/AVC\nDuration                                 : 1h 42mn\nWidth                                    : 1 920 pixels\nHeight                                   : 1 080 pixels\nDisplay aspect ratio                     : 16:9\nFrame rate mode                          : Constant\nFrame rate                               : 23.976 fps\nColor space                              : YUV\nChroma subsampling                       : 4:2:0\nBit depth                                : 8 bits\nScan type                                : Progressive\nWriting library                          : x264 core\nDefault                                  : Yes\nForced                                   : No\nColor primaries                          : BT.709\nTransfer characteristics                 : BT.709\nMatrix coefficients                      : BT.709\n\nAudio #1\nID                                       : 2\nFormat                                   : AC-3\nFormat/Info                              : Audio Coding 3\nMode extension                           : CM (complete main)\nFormat settings, Endianness              : Big\nCodec ID                                 : A_AC3\nDuration                                 : 1h 42mn\nBit rate mode                            : Constant\nBit rate                                 : 640 Kbps\nChannel(s)                               : 6 channels\nChannel positions                        : Front: L C R, Side: L R, LFE\nSampling rate                            : 48.0 KHz\nBit depth                                : 16 bits\nCompression mode                         : Lossy\nDelay relative to video                  : 37ms\nStream size                              : 468 MiB (3%)\nTitle                                    : Dubbing PL\nLanguage                                 : Polish\nDefault                                  : Yes\nForced                                   : No\n\nAudio #2\nID                                       : 3\nFormat                                   : DTS\nFormat/Info                              : Digital Theater Systems\nMode                                     : 16\nFormat settings, Endianness              : Big\nCodec ID                                 : A_DTS\nDuration                                 : 1h 42mn\nBit rate mode                            : Constant\nBit rate                                 : 1 509 Kbps\nChannel(s)                               : 6 channels\nChannel positions                        : Front: L C R, Side: L R, LFE\nSampling rate                            : 48.0 KHz\nBit depth                                : 24 bits\nCompression mode                         : Lossy\nDelay relative to video                  : 42ms\nStream size                              : 1.08 GiB (7%)\nTitle                                    : Dubbing PL DTS\nLanguage                                 : Polish\nDefault                                  : No\nForced                                   : No\n\nAudio #3\nID                                       : 4\nFormat                                   : AC-3\nFormat/Info                              : Audio Coding 3\nMode extension                           : CM (complete main)\nFormat settings, Endianness              : Big\nCodec ID                                 : A_AC3\nDuration                                 : 1h 42mn\nBit rate mode                            : Constant\nBit rate                                 : 640 Kbps\nChannel(s)                               : 6 channels\nChannel positions                        : Front: L C R, Side: L R, LFE\nSampling rate                            : 48.0 KHz\nBit depth                                : 16 bits\nCompression mode                         : Lossy\nDelay relative to video                  : 37ms\nStream size                              : 468 MiB (3%)\nTitle                                    : English\nLanguage                                 : English\nDefault                                  : No\nForced                                   : No\n\nAudio #4\nID                                       : 5\nFormat                                   : DTS\nFormat/Info                              : Digital Theater Systems\nFormat profile                           : MA / Core\nMode                                     : 16\nFormat settings, Endianness              : Big\nCodec ID                                 : A_DTS\nDuration                                 : 1h 42mn\nBit rate mode                            : Variable\nBit rate                                 : Unknown / 1 509 Kbps\nChannel(s)                               : 8 channels / 6 channels\nChannel positions                        : Front: L C R, Side: L R, Back: L R, LFE / Front: L C R, Side: L R, LFE\nSampling rate                            : 48.0 KHz\nBit depth                                : 24 bits\nCompression mode                         : Lossless / Lossy\nDelay relative to video                  : 42ms\nTitle                                    : English DTS HD MA\nLanguage                                 : English\nDefault                                  : No\nForced                                   : No\n\nText #1\nID                                       : 6\nFormat                                   : PGS\nMuxing mode                              : zlib\nCodec ID                                 : S_HDMV/PGS\nCodec ID/Info                            : The same subtitle format used on BDs/HD-DVDs\nTitle                                    : Napisy PL 3D\nLanguage                                 : Polish\nDefault                                  : No\nForced                                   : No\n\nText #2\nID                                       : 7\nFormat                                   : UTF-8\nCodec ID                                 : S_TEXT/UTF8\nCodec ID/Info                            : UTF-8 Plain Text\nTitle                                    : Napisy PL\nLanguage                                 : Polish\nDefault                                  : No\nForced                                   : No","torrent":{"xt":"urn:btih:83d28bea400ac59a6af7d6ac4f224259063db504","amp;dn":"Frozen+3D+-+Kraina+Lodu+3D+%282013%29+%5B1080p.3D.OU.DTS%5D+%5BENG%2FPOL%5D","amp;tr":["udp%3A%2F%2Ftracker.openbittorrent.com%3A80","udp%3A%2F%2Fopen.demonii.com%3A1337","udp%3A%2F%2Ftracker.coppersurfer.tk%3A6969","udp%3A%2F%2Fexodus.desync.com%3A6969"],"infoHash":"83d28bea400ac59a6af7d6ac4f224259063db504","infoHashBuffer":{"type":"Buffer","data":[131,210,139,234,64,10,197,154,106,247,214,172,79,34,66,89,6,61,181,4]},"announce":[],"urlList":[]}}